# xmcd
# 
# Track frame offsets:
#     150
#     13653
#     26883
#     40731
#     55637
#     71701
#     85640
#     98775
#     113098
#     127052
#     140463
#     152315
#     165761
#     179152
# 
# Disc length: 2570
# 
# Revision: 0
# Processed by: cddbd v1.5.2PL0 Copyright (c) Steve Scherf et al.
# Submitted via: fre:ac v1.0.17
# 
DISCID=ae0a080e
DTITLE=Various Artist - Let's Have A Little Fun
DYEAR=0
DGENRE=Blues
TTITLE0=Famous Hokum Boys - Black Cat Rag
TTITLE1=Sammy Sampson - I Got The Blues For My Baby
TTITLE2=Big Bill Broonzy - Mistreatin' Mama Blues
TTITLE3=Big Bill Broonzy - C.C. Rider
TTITLE4=Big Bill Broonzy - Hungry Man Blues
TTITLE5=Big Bill Broonzy - The Sun Gonna Shine In My Door Someday
TTITLE6=Big bill Broonzy - Tell Me What You Been Doing
TTITLE7=Big Bill Broonzy - Bricks In My Pillow
TTITLE8=Hokum Boys - Keep Your Mind On It
TTITLE9=Big Bill Broonzy - I'll Do Anything For You
TTITLE10=Big Bill Broonzy - Just A Dream (On My Mind)
TTITLE11=Big Bill Broonzy - Let's Have A Little Fun
TTITLE12=Lil Green - Why Don't You Do Right?
TTITLE13=Big Bill Broonzy - Key To The Highway
EXTD=blues and soul records No.65
EXTT0=
EXTT1=
EXTT2=
EXTT3=
EXTT4=
EXTT5=
EXTT6=
EXTT7=
EXTT8=
EXTT9=
EXTT10=
EXTT11=
EXTT12=
EXTT13=
PLAYORDER=
